<?xml version="1.0" encoding="utf-8"?>
<!-- Generator: Adobe Illustrator 16.0.2, SVG Export Plug-In . SVG Version: 6.00 Build 0)  -->
<!DOCTYPE svg PUBLIC "-//W3C//DTD SVG 1.1//EN" "http://www.w3.org/Graphics/SVG/1.1/DTD/svg11.dtd">
<svg version="1.1" id="Layer_1" xmlns="http://www.w3.org/2000/svg" xmlns:xlink="http://www.w3.org/1999/xlink" x="0px" y="0px"
	 width="1920px" height="1050px" viewBox="0 0 1920 1050" enable-background="new 0 0 1920 1050" xml:space="preserve">
<path fill="none" stroke="#606CD6" stroke-width="5" stroke-miterlimit="10" d="M1459.302,816.151c0,0,28.313,1.742,55.276,11.402
	c26.964,9.66,1.272,37.049,49.89,36.871c48.617-0.179,26.406,14.573,18.524,33.953c-7.881,19.382,19.692,21.409,41.028,29.438
	c21.337,8.027,39.026,14.762,39.026,14.762"/>
<path fill="none" stroke="#606CD6" stroke-width="5" stroke-miterlimit="10" d="M330,664c0,0-8,36,45,18s31,5,31,27"/>
<path fill="none" stroke="#606CD6" stroke-width="5" stroke-miterlimit="10" d="M750,840c0,0,69-27,49-55s28-27,84-38"/>
<path fill="none" stroke="#606CD6" stroke-width="5" stroke-miterlimit="10" d="M476,343c0,0-7,42,27,48s77-10,90,25"/>
<path fill="none" stroke="#606CD6" stroke-width="5" stroke-miterlimit="10" d="M1253,458c0,0,18,25,39,0s33-3,66,21
	s29-30.041,59-16.021"/>
<path fill="none" stroke="#606CD6" stroke-width="5" stroke-miterlimit="10" d="M883,210c0,0-8,27,42,23s53,3,35,35s5,26,26,35"/>
<path fill="none" stroke="#606CD6" stroke-width="5" stroke-miterlimit="10" d="M194,926c0,0,51-8.271,39-46.636S265,860,283,862
	s22-11,41-31"/>
<path fill="none" stroke="#606CD6" stroke-width="5" stroke-miterlimit="10" d="M266,235c0,0,8,39,30,39s61.097-26,74.048-5"/>
</svg>
