<svg xmlns="http://www.w3.org/2000/svg" version="1.1" xmlns:xlink="http://www.w3.org/1999/xlink" xmlns:svgjs="http://svgjs.com/svgjs" width="1298" height="82" preserveAspectRatio="none" viewBox="0 0 1298 82"><g mask="url(&quot;#SvgjsMask1083&quot;)" fill="none"><use xlink:href="#SvgjsSymbol1089" x="0" y="0"></use><use xlink:href="#SvgjsSymbol1089" x="720" y="0"></use></g><defs><mask id="SvgjsMask1083"><rect width="1298" height="82" fill="#ffffff"></rect></mask><path d="M-1 0 a1 1 0 1 0 2 0 a1 1 0 1 0 -2 0z" id="SvgjsPath1086"></path><path d="M-3 0 a3 3 0 1 0 6 0 a3 3 0 1 0 -6 0z" id="SvgjsPath1088"></path><path d="M-5 0 a5 5 0 1 0 10 0 a5 5 0 1 0 -10 0z" id="SvgjsPath1085"></path><path d="M2 -2 L-2 2z" id="SvgjsPath1087"></path><path d="M6 -6 L-6 6z" id="SvgjsPath1084"></path><path d="M30 -30 L-30 30z"></path></defs><symbol id="SvgjsSymbol1089"><use xlink:href="#SvgjsPath1084" x="30" y="30" stroke="rgba(83, 99, 239, 1)"></use><use xlink:href="#SvgjsPath1085" x="30" y="90" stroke="rgba(253, 170, 59, 1)"></use><use xlink:href="#SvgjsPath1086" x="90" y="30" stroke="rgba(83, 99, 239, 1)"></use><use xlink:href="#SvgjsPath1085" x="90" y="90" stroke="rgba(83, 99, 239, 1)"></use><use xlink:href="#SvgjsPath1084" x="150" y="30" stroke="rgba(253, 170, 59, 1)"></use><use xlink:href="#SvgjsPath1087" x="150" y="90" stroke="rgba(83, 99, 239, 1)"></use><use xlink:href="#SvgjsPath1086" x="210" y="30" stroke="rgba(83, 99, 239, 1)"></use><use xlink:href="#SvgjsPath1084" x="210" y="90" stroke="rgba(253, 170, 59, 1)"></use><use xlink:href="#SvgjsPath1084" x="270" y="30" stroke="rgba(135, 202, 196, 1)"></use><use xlink:href="#SvgjsPath1084" x="270" y="90" stroke="rgba(83, 99, 239, 1)"></use><use xlink:href="#SvgjsPath1084" x="330" y="30" stroke="rgba(135, 202, 196, 1)"></use><use xlink:href="#SvgjsPath1084" x="330" y="90" stroke="rgba(253, 170, 59, 1)"></use><use xlink:href="#SvgjsPath1086" x="390" y="30" stroke="rgba(83, 99, 239, 1)"></use><use xlink:href="#SvgjsPath1085" x="390" y="90" stroke="rgba(83, 99, 239, 1)"></use><use xlink:href="#SvgjsPath1084" x="450" y="30" stroke="rgba(83, 99, 239, 1)"></use><use xlink:href="#SvgjsPath1088" x="450" y="90" stroke="rgba(135, 202, 196, 1)"></use><use xlink:href="#SvgjsPath1085" x="510" y="30" stroke="rgba(253, 170, 59, 1)"></use><use xlink:href="#SvgjsPath1084" x="510" y="90" stroke="rgba(83, 99, 239, 1)"></use><use xlink:href="#SvgjsPath1085" x="570" y="30" stroke="rgba(135, 202, 196, 1)"></use><use xlink:href="#SvgjsPath1084" x="570" y="90" stroke="rgba(83, 99, 239, 1)"></use><use xlink:href="#SvgjsPath1086" x="630" y="30" stroke="rgba(83, 99, 239, 1)"></use><use xlink:href="#SvgjsPath1085" x="630" y="90" stroke="rgba(253, 170, 59, 1)"></use><use xlink:href="#SvgjsPath1085" x="690" y="30" stroke="rgba(253, 170, 59, 1)"></use><use xlink:href="#SvgjsPath1088" x="690" y="90" stroke="rgba(135, 202, 196, 1)"></use></symbol></svg>