<svg id="visual" viewBox="0 0 900 600" width="900" height="600" xmlns="http://www.w3.org/2000/svg" xmlns:xlink="http://www.w3.org/1999/xlink" version="1.1"><g><g transform="translate(709 399)"><path d="M88.5 -31.5C100.6 8.5 86.6 54.2 56.7 75.2C26.8 96.3 -19 92.7 -51 69.6C-83 46.5 -101.3 3.8 -90.5 -34.3C-79.7 -72.5 -39.8 -106.2 -0.8 -105.9C38.2 -105.7 76.4 -71.5 88.5 -31.5Z" stroke="#F7760E" fill="none" stroke-width="8"></path></g><g transform="translate(14 284)"><path d="M73 -26.7C81.5 2.4 66.2 36.2 41.2 53.7C16.1 71.2 -18.7 72.4 -43 55.5C-67.3 38.7 -81.2 3.9 -72.3 -25.7C-63.4 -55.4 -31.7 -79.9 0.3 -80C32.3 -80.1 64.5 -55.8 73 -26.7Z" stroke="#F7760E" fill="none" stroke-width="8"></path></g><g transform="translate(708 105)"><path d="M57.5 -21.1C64.5 2.8 53.2 30.2 32.7 45C12.3 59.9 -17.3 62.2 -38.5 48C-59.8 33.8 -72.6 3 -64.8 -22C-57 -47 -28.5 -66.2 -1.6 -65.7C25.3 -65.1 50.6 -44.9 57.5 -21.1Z" stroke="#F7760E" fill="none" stroke-width="8"></path></g></g></svg>