<svg id="visual" viewBox="0 0 900 600" width="900" height="600" xmlns="http://www.w3.org/2000/svg" xmlns:xlink="http://www.w3.org/1999/xlink" version="1.1"><g><g transform="translate(109 424)"><path d="M100.7 -33.3C113.4 6.4 94.8 55.6 61.3 78.6C27.8 101.6 -20.6 98.3 -55.2 73.7C-89.7 49.2 -110.3 3.3 -98.8 -34.8C-87.3 -72.8 -43.7 -103.1 0.2 -103.1C44 -103.2 88 -73 100.7 -33.3Z" stroke="#F7760E" fill="none" stroke-width="8"></path></g><g transform="translate(757 153)"><path d="M66.4 -22.5C74.9 4.5 62.8 37.2 38.6 55.3C14.3 73.4 -22.1 77 -43.3 61.2C-64.5 45.4 -70.6 10.2 -60.8 -18.5C-51.1 -47.3 -25.5 -69.7 1.7 -70.3C29 -70.8 58 -49.5 66.4 -22.5Z" stroke="#F7760E" fill="none" stroke-width="8"></path></g><g transform="translate(464 350)"><path d="M81.3 -27.4C91.5 5.1 76.5 44.8 49 63.9C21.5 83.1 -18.3 81.6 -45.4 62C-72.4 42.5 -86.6 4.9 -76.9 -26.9C-67.2 -58.7 -33.6 -84.6 1 -84.9C35.5 -85.2 71.1 -59.9 81.3 -27.4Z" stroke="#F7760E" fill="none" stroke-width="8"></path></g></g></svg>