<svg id="visual" viewBox="0 0 900 600" width="900" height="600" xmlns="http://www.w3.org/2000/svg" xmlns:xlink="http://www.w3.org/1999/xlink" version="1.1"><g fill="none" stroke="#87cac4" stroke-width="4"><path d="M0 -111.4L25 -34.4L105.9 -34.4L40.5 13.1L65.5 90.1L0 42.5L-65.5 90.1L-40.5 13.1L-105.9 -34.4L-25 -34.4Z" transform="translate(143 350)"></path><path d="M0 -49.1L11 -15.2L46.7 -15.2L17.8 5.8L28.8 39.7L0 18.7L-28.8 39.7L-17.8 5.8L-46.7 -15.2L-11 -15.2Z" transform="translate(520 306)"></path><path d="M0 -74.6L16.7 -23L70.9 -23L27.1 8.8L43.8 60.3L0 28.5L-43.8 60.3L-27.1 8.8L-70.9 -23L-16.7 -23Z" transform="translate(55 38)"></path><path d="M0 -80.2L18 -24.8L76.3 -24.8L29.1 9.5L47.2 64.9L0 30.6L-47.2 64.9L-29.1 9.5L-76.3 -24.8L-18 -24.8Z" transform="translate(405 538)"></path></g></svg>