<svg xmlns="http://www.w3.org/2000/svg" width="1920" height="1011" viewBox="0 0 1920 1011">
  <defs>
    <style>
      .cls-1 {
        fill: #c4ebe4;
        fill-rule: evenodd;
      }
    </style>
  </defs>
  <path id="Elipse_1" data-name="Elipse 1" class="cls-1" d="M50.664,47c84.348,0,152.725,70.313,152.725,157.049S135.012,361.1,50.664,361.1s-152.726-70.313-152.726-157.048S-33.684,47,50.664,47ZM18.316,318.563c85.226,0,154.316,71.046,154.316,158.685S103.542,635.932,18.316,635.932-136,564.887-136,477.248-66.911,318.563,18.316,318.563ZM74,554.136c135.308,0,245,112.794,245,251.932S209.305,1058,74,1058-171,945.206-171,806.068-61.311,554.136,74,554.136ZM1896.09,60.087c75.57,0,136.82,62.989,136.82,140.69s-61.25,140.689-136.82,140.689-136.81-62.989-136.81-140.689S1820.53,60.087,1896.09,60.087Zm36.59,222.486c104.56,0,189.32,87.159,189.32,194.675s-84.76,194.674-189.32,194.674-189.31-87.159-189.31-194.674S1828.13,282.573,1932.68,282.573Zm-53.03,358.812c82.89,0,150.08,69.092,150.08,154.322s-67.19,154.322-150.08,154.322-150.07-69.092-150.07-154.322S1796.77,641.385,1879.65,641.385Z" transform="translate(0 -47)"/>
</svg>
