<svg id="visual" viewBox="0 0 1980 1290" width="1980" height="1290" xmlns="http://www.w3.org/2000/svg" xmlns:xlink="http://www.w3.org/1999/xlink" version="1.1"><path d="M1577 1290L1582 1259.3C1587 1228.7 1597 1167.3 1610.3 1105.8C1623.7 1044.3 1640.3 982.7 1620.7 921.2C1601 859.7 1545 798.3 1498.7 737C1452.3 675.7 1415.7 614.3 1435.8 553C1456 491.7 1533 430.3 1540.2 368.8C1547.3 307.3 1484.7 245.7 1475.3 184.2C1466 122.7 1510 61.3 1532 30.7L1554 0L1980 0L1980 30.7C1980 61.3 1980 122.7 1980 184.2C1980 245.7 1980 307.3 1980 368.8C1980 430.3 1980 491.7 1980 553C1980 614.3 1980 675.7 1980 737C1980 798.3 1980 859.7 1980 921.2C1980 982.7 1980 1044.3 1980 1105.8C1980 1167.3 1980 1228.7 1980 1259.3L1980 1290Z" fill="#b5bcf7" stroke-linecap="round" stroke-linejoin="miter"></path></svg>