<svg id="visual" viewBox="0 0 1980 1800" width="1980" height="1800" xmlns="http://www.w3.org/2000/svg" xmlns:xlink="http://www.w3.org/1999/xlink" version="1.1"><path d="M521 0L525.7 42.8C530.3 85.7 539.7 171.3 496.5 257C453.3 342.7 357.7 428.3 322.2 514C286.7 599.7 311.3 685.3 349.3 771.2C387.3 857 438.7 943 443.7 1028.8C448.7 1114.7 407.3 1200.3 381.7 1286C356 1371.7 346 1457.3 376.8 1543C407.7 1628.7 479.3 1714.3 515.2 1757.2L551 1800L0 1800L0 1757.2C0 1714.3 0 1628.7 0 1543C0 1457.3 0 1371.7 0 1286C0 1200.3 0 1114.7 0 1028.8C0 943 0 857 0 771.2C0 685.3 0 599.7 0 514C0 428.3 0 342.7 0 257C0 171.3 0 85.7 0 42.8L0 0Z" fill="#87CAC4" stroke-linecap="round" stroke-linejoin="miter"></path></svg>