<svg id="visual" viewBox="0 0 900 1080" width="900" height="1080" xmlns="http://www.w3.org/2000/svg" xmlns:xlink="http://www.w3.org/1999/xlink" version="1.1"><path d="M227 0L221.5 25.7C216 51.3 205 102.7 209 154.2C213 205.7 232 257.3 234.7 308.8C237.3 360.3 223.7 411.7 228 463C232.3 514.3 254.7 565.7 244.7 617C234.7 668.3 192.3 719.7 198.8 771.2C205.3 822.7 260.7 874.3 284 925.8C307.3 977.3 298.7 1028.7 294.3 1054.3L290 1080L0 1080L0 1054.3C0 1028.7 0 977.3 0 925.8C0 874.3 0 822.7 0 771.2C0 719.7 0 668.3 0 617C0 565.7 0 514.3 0 463C0 411.7 0 360.3 0 308.8C0 257.3 0 205.7 0 154.2C0 102.7 0 51.3 0 25.7L0 0Z" fill="#beebe8" stroke-linecap="round" stroke-linejoin="miter"></path></svg>