<svg id="visual" viewBox="0 0 1980 1800" width="1980" height="1800" xmlns="http://www.w3.org/2000/svg" xmlns:xlink="http://www.w3.org/1999/xlink" version="1.1"><g><g transform="translate(967 1432)"><path d="M218.2 -76.7C250.8 29.4 223.2 149.3 142.5 211.6C61.8 273.9 -72 278.6 -162.4 214.9C-252.7 151.3 -299.6 19.4 -265.3 -89.1C-231 -197.6 -115.5 -282.6 -11.3 -278.9C92.8 -275.2 185.6 -182.8 218.2 -76.7Z" stroke="#F7760E" fill="none" stroke-width="20"></path></g><g transform="translate(1555 532)"><path d="M199.2 -64.2C226.4 19.2 195 122.1 126.5 171.2C58 220.3 -47.6 215.5 -111.4 166.1C-175.2 116.8 -197.2 22.8 -171.7 -58.2C-146.1 -139.2 -73.1 -207.2 6.4 -209.3C86 -211.4 171.9 -147.6 199.2 -64.2Z" stroke="#F7760E" fill="none" stroke-width="20"></path></g><g transform="translate(219 396)"><path d="M174.1 -53.6C200.6 25 179.8 121.9 113.8 174C47.8 226 -63.4 233.2 -134.9 182.1C-206.4 130.9 -238.3 21.6 -209.2 -60.6C-180.1 -142.9 -90 -197.9 -8.1 -195.3C73.8 -192.6 147.6 -132.3 174.1 -53.6Z" stroke="#F7760E" fill="none" stroke-width="20"></path></g></g></svg>