<svg id="visual" viewBox="0 0 900 1080" width="900" height="1080" xmlns="http://www.w3.org/2000/svg" xmlns:xlink="http://www.w3.org/1999/xlink" version="1.1"><path d="M675 1080L680.5 1054.3C686 1028.7 697 977.3 693 925.8C689 874.3 670 822.7 667.3 771.2C664.7 719.7 678.3 668.3 674 617C669.7 565.7 647.3 514.3 657.3 463C667.3 411.7 709.7 360.3 703.2 308.8C696.7 257.3 641.3 205.7 618 154.2C594.7 102.7 603.3 51.3 607.7 25.7L612 0L900 0L900 25.7C900 51.3 900 102.7 900 154.2C900 205.7 900 257.3 900 308.8C900 360.3 900 411.7 900 463C900 514.3 900 565.7 900 617C900 668.3 900 719.7 900 771.2C900 822.7 900 874.3 900 925.8C900 977.3 900 1028.7 900 1054.3L900 1080Z" fill="#beebe8" stroke-linecap="round" stroke-linejoin="miter"></path></svg>