<svg id="visual" viewBox="0 0 1980 1800" width="1980" height="1800" xmlns="http://www.w3.org/2000/svg" xmlns:xlink="http://www.w3.org/1999/xlink" version="1.1"><g><g transform="translate(114 990)"><path d="M269.7 -73.3C306.6 26 264.1 165.5 173.1 229.6C82.1 293.6 -57.4 282.3 -146.1 214.7C-234.7 147.1 -272.5 23.1 -239.7 -70.6C-206.8 -164.3 -103.4 -227.8 6.5 -229.9C116.4 -232 232.8 -172.7 269.7 -73.3Z" stroke="#F7760E" fill="none" stroke-width="20"></path></g><g transform="translate(1774 1089)"><path d="M164.3 -53C188.6 21.2 167.1 110.8 108.8 154.1C50.5 197.5 -44.4 194.6 -106.7 148.9C-168.9 103.2 -198.5 14.5 -175.3 -58.3C-152 -131.1 -76 -188.1 -3 -187.1C70 -186.1 140.1 -127.2 164.3 -53Z" stroke="#F7760E" fill="none" stroke-width="20"></path></g><g transform="translate(1141 318)"><path d="M177 -57.2C201.7 18.7 175.2 111.6 113.4 156.6C51.7 201.6 -45.3 198.7 -111.1 151.2C-177 103.8 -211.7 11.8 -188 -62.6C-164.3 -137.1 -82.2 -194 -3 -193.1C76.1 -192.1 152.2 -133.1 177 -57.2Z" stroke="#F7760E" fill="none" stroke-width="20"></path></g></g></svg>