<svg id="visual" viewBox="0 0 1980 1800" width="1980" height="1800" xmlns="http://www.w3.org/2000/svg" xmlns:xlink="http://www.w3.org/1999/xlink" version="1.1"><path d="M1461 1800L1456.3 1757.2C1451.7 1714.3 1442.3 1628.7 1485.5 1543C1528.7 1457.3 1624.3 1371.7 1659.8 1286C1695.3 1200.3 1670.7 1114.7 1632.7 1028.8C1594.7 943 1543.3 857 1538.3 771.2C1533.3 685.3 1574.7 599.7 1600.3 514C1626 428.3 1636 342.7 1605.2 257C1574.3 171.3 1502.7 85.7 1466.8 42.8L1431 0L1980 0L1980 42.8C1980 85.7 1980 171.3 1980 257C1980 342.7 1980 428.3 1980 514C1980 599.7 1980 685.3 1980 771.2C1980 857 1980 943 1980 1028.8C1980 1114.7 1980 1200.3 1980 1286C1980 1371.7 1980 1457.3 1980 1543C1980 1628.7 1980 1714.3 1980 1757.2L1980 1800Z" fill="#87CAC4" stroke-linecap="round" stroke-linejoin="miter"></path></svg>