<svg id="visual" viewBox="0 0 1980 1290" width="1980" height="1290" xmlns="http://www.w3.org/2000/svg" xmlns:xlink="http://www.w3.org/1999/xlink" version="1.1"><path d="M1412 1290L1434.5 1259.3C1457 1228.7 1502 1167.3 1490.3 1105.8C1478.7 1044.3 1410.3 982.7 1420.8 921.2C1431.3 859.7 1520.7 798.3 1526.3 737C1532 675.7 1454 614.3 1431.8 553C1409.7 491.7 1443.3 430.3 1478.2 368.8C1513 307.3 1549 245.7 1529.2 184.2C1509.3 122.7 1433.7 61.3 1395.8 30.7L1358 0L1980 0L1980 30.7C1980 61.3 1980 122.7 1980 184.2C1980 245.7 1980 307.3 1980 368.8C1980 430.3 1980 491.7 1980 553C1980 614.3 1980 675.7 1980 737C1980 798.3 1980 859.7 1980 921.2C1980 982.7 1980 1044.3 1980 1105.8C1980 1167.3 1980 1228.7 1980 1259.3L1980 1290Z" fill="#ffa836" stroke-linecap="round" stroke-linejoin="miter"></path></svg>