<svg id="visual" viewBox="0 0 1980 1290" width="1980" height="1290" xmlns="http://www.w3.org/2000/svg" xmlns:xlink="http://www.w3.org/1999/xlink" version="1.1"><path d="M570 0L547.5 30.7C525 61.3 480 122.7 491.7 184.2C503.3 245.7 571.7 307.3 561.2 368.8C550.7 430.3 461.3 491.7 455.7 553C450 614.3 528 675.7 550.2 737C572.3 798.3 538.7 859.7 503.8 921.2C469 982.7 433 1044.3 452.8 1105.8C472.7 1167.3 548.3 1228.7 586.2 1259.3L624 1290L0 1290L0 1259.3C0 1228.7 0 1167.3 0 1105.8C0 1044.3 0 982.7 0 921.2C0 859.7 0 798.3 0 737C0 675.7 0 614.3 0 553C0 491.7 0 430.3 0 368.8C0 307.3 0 245.7 0 184.2C0 122.7 0 61.3 0 30.7L0 0Z" fill="#ffaa3b" stroke-linecap="round" stroke-linejoin="miter"></path></svg>