<svg id="visual" viewBox="0 0 900 600" width="900" height="600" xmlns="http://www.w3.org/2000/svg" xmlns:xlink="http://www.w3.org/1999/xlink" version="1.1"><g><g transform="translate(205 277)"><path d="M102.7 -29.9C118.5 15.2 106.7 72.8 69 101.7C31.4 130.7 -31.9 130.9 -74.3 100.6C-116.6 70.2 -138 9.2 -122.1 -36C-106.2 -81.2 -53.1 -110.6 -4.8 -109.1C43.5 -107.5 87 -74.9 102.7 -29.9Z" fill="none" stroke="#F7760E" stroke-width="9"></path></g><g transform="translate(670 496)"><path d="M91.2 -33.7C103.5 8.2 88.6 54.8 55 80.2C21.5 105.6 -30.7 109.8 -61 87.1C-91.4 64.3 -99.9 14.5 -86.1 -29.5C-72.3 -73.5 -36.1 -111.7 1.7 -112.2C39.5 -112.8 78.9 -75.6 91.2 -33.7Z" fill="none" stroke="#F7760E" stroke-width="9"></path></g><g transform="translate(683 43)"><path d="M107.5 -35C119.4 1.6 95.3 49.8 58.3 75.5C21.3 101.2 -28.5 104.5 -64.2 80.4C-99.9 56.4 -121.5 4.9 -108.5 -33.3C-95.4 -71.5 -47.7 -96.4 0.1 -96.4C47.8 -96.5 95.6 -71.5 107.5 -35Z" stroke="#F7760E" fill="none" stroke-width="9"></path></g></g></svg>