<?xml version="1.0" encoding="iso-8859-1"?>
<!-- Generator: Adobe Illustrator 16.0.2, SVG Export Plug-In . SVG Version: 6.00 Build 0)  -->
<!DOCTYPE svg PUBLIC "-//W3C//DTD SVG 1.1//EN" "http://www.w3.org/Graphics/SVG/1.1/DTD/svg11.dtd">
<svg version="1.1" id="Layer_1" xmlns="http://www.w3.org/2000/svg" xmlns:xlink="http://www.w3.org/1999/xlink" x="0px" y="0px"
	 width="1280px" height="800px" viewBox="0 0 1280 800" style="enable-background:new 0 0 1280 800;" xml:space="preserve">
<path style="fill:#87CAC4;" d="M1254-116c0,0,6,33.5-96,40.5s-143,6.75-146,76.75s66,43.875,161,131.875s169,17.938,215-37.063
	s48-56.531,105-59.531S1401-116,1401-116H1254z"/>
<path style="fill:#87CAC4;" d="M143,71"/>
<path style="fill:#87CAC4;" d="M72,126"/>
<path style="fill:#87CAC4;" d="M35.708-131.058c0,0,4.218,33.771-98.01,35.36s-143.157-0.831-149.859,68.912
	c-6.702,69.743,63.584,47.308,153.792,140.215s167.813,26.861,216.661-25.626s50.926-53.911,108.005-53.888
	c57.079,0.022-83.794-157.188-83.794-157.188L35.708-131.058z"/>
</svg>
