<svg id="visual" viewBox="0 0 1920 1080" width="1920" height="1080" xmlns="http://www.w3.org/2000/svg" xmlns:xlink="http://www.w3.org/1999/xlink" version="1.1"><g><g transform="translate(1278 175)"><path d="M194.7 -55.4C221.6 19.4 191.3 120.5 124.1 169C56.8 217.4 -47.5 213.2 -119.1 161.7C-190.7 110.2 -229.7 11.4 -204.4 -61.2C-179.1 -133.9 -89.5 -180.4 -2.8 -179.5C83.9 -178.6 167.9 -130.2 194.7 -55.4Z" stroke="#F7760E" fill="none" stroke-width="9"></path></g><g transform="translate(785 1007)"><path d="M129.6 -41.2C144.4 3.4 116.5 62.8 69.3 97.7C22 132.6 -44.8 143 -85.2 114.3C-125.6 85.6 -139.8 17.8 -121.2 -32C-102.6 -81.8 -51.3 -113.5 3 -114.5C57.4 -115.5 114.8 -85.7 129.6 -41.2Z" stroke="#F7760E" fill="none" stroke-width="9"></path></g><g transform="translate(545 371)"><path d="M137.4 -42.7C158.2 19.2 141.3 95.3 92 132.5C42.7 169.7 -39.1 168.1 -96.7 127.5C-154.3 87 -187.7 7.6 -167.6 -53.5C-147.4 -114.6 -73.7 -157.3 -7.7 -154.8C58.3 -152.3 116.6 -104.6 137.4 -42.7Z" stroke="#F7760E" fill="none" stroke-width="9"></path></g></g></svg>