<svg id="visual" viewBox="0 0 900 600" width="900" height="600" xmlns="http://www.w3.org/2000/svg" xmlns:xlink="http://www.w3.org/1999/xlink" version="1.1"><path d="M0 359L21.5 371.5C43 384 86 409 128.8 410C171.7 411 214.3 388 257.2 374.7C300 361.3 343 357.7 385.8 364.3C428.7 371 471.3 388 514.2 401.7C557 415.3 600 425.7 642.8 429.2C685.7 432.7 728.3 429.3 771.2 423.3C814 417.3 857 408.7 878.5 404.3L900 400L900 601L878.5 601C857 601 814 601 771.2 601C728.3 601 685.7 601 642.8 601C600 601 557 601 514.2 601C471.3 601 428.7 601 385.8 601C343 601 300 601 257.2 601C214.3 601 171.7 601 128.8 601C86 601 43 601 21.5 601L0 601Z" fill="#fcaf3c"></path><path d="M0 466L21.5 463.8C43 461.7 86 457.3 128.8 458C171.7 458.7 214.3 464.3 257.2 456.8C300 449.3 343 428.7 385.8 428.7C428.7 428.7 471.3 449.3 514.2 449.2C557 449 600 428 642.8 427C685.7 426 728.3 445 771.2 456.2C814 467.3 857 470.7 878.5 472.3L900 474L900 601L878.5 601C857 601 814 601 771.2 601C728.3 601 685.7 601 642.8 601C600 601 557 601 514.2 601C471.3 601 428.7 601 385.8 601C343 601 300 601 257.2 601C214.3 601 171.7 601 128.8 601C86 601 43 601 21.5 601L0 601Z" fill="#f98d1e"></path><path d="M0 453L21.5 450.7C43 448.3 86 443.7 128.8 453.2C171.7 462.7 214.3 486.3 257.2 495.2C300 504 343 498 385.8 495C428.7 492 471.3 492 514.2 486.8C557 481.7 600 471.3 642.8 468C685.7 464.7 728.3 468.3 771.2 476.7C814 485 857 498 878.5 504.5L900 511L900 601L878.5 601C857 601 814 601 771.2 601C728.3 601 685.7 601 642.8 601C600 601 557 601 514.2 601C471.3 601 428.7 601 385.8 601C343 601 300 601 257.2 601C214.3 601 171.7 601 128.8 601C86 601 43 601 21.5 601L0 601Z" fill="#f7770f"></path><path d="M0 520L21.5 521.2C43 522.3 86 524.7 128.8 521.5C171.7 518.3 214.3 509.7 257.2 505.5C300 501.3 343 501.7 385.8 504.7C428.7 507.7 471.3 513.3 514.2 513.8C557 514.3 600 509.7 642.8 509.8C685.7 510 728.3 515 771.2 515.7C814 516.3 857 512.7 878.5 510.8L900 509L900 601L878.5 601C857 601 814 601 771.2 601C728.3 601 685.7 601 642.8 601C600 601 557 601 514.2 601C471.3 601 428.7 601 385.8 601C343 601 300 601 257.2 601C214.3 601 171.7 601 128.8 601C86 601 43 601 21.5 601L0 601Z" fill="#f98d1e"></path><path d="M0 565L21.5 559.7C43 554.3 86 543.7 128.8 544.5C171.7 545.3 214.3 557.7 257.2 556.7C300 555.7 343 541.3 385.8 541.3C428.7 541.3 471.3 555.7 514.2 555.5C557 555.3 600 540.7 642.8 540.3C685.7 540 728.3 554 771.2 559.7C814 565.3 857 562.7 878.5 561.3L900 560L900 601L878.5 601C857 601 814 601 771.2 601C728.3 601 685.7 601 642.8 601C600 601 557 601 514.2 601C471.3 601 428.7 601 385.8 601C343 601 300 601 257.2 601C214.3 601 171.7 601 128.8 601C86 601 43 601 21.5 601L0 601Z" fill="#fcaf3c"></path></svg>